<svg width="34" height="36" viewBox="0 0 34 36" fill="none" xmlns="http://www.w3.org/2000/svg">
<path d="M17 34C26.3888 34 34 26.3888 34 17C34 7.61116 26.3888 0 17 0C7.61116 0 0 7.61116 0 17C0 26.3888 7.61116 34 17 34Z" fill="#FFCB4C"/>
<path d="M13.524 21.018C13.379 20.902 13.266 20.744 13.212 20.554C13.078 20.094 13.342 19.636 13.802 19.533C18.33 18.512 21.379 20.896 21.508 20.998C21.892 21.304 21.967 21.843 21.681 22.203C21.395 22.561 20.853 22.604 20.47 22.3C20.36 22.216 17.947 20.377 14.288 21.202C14.014 21.263 13.734 21.186 13.524 21.018V21.018Z" fill="#65471B"/>
<path d="M12.119 13.812C13.2926 13.812 14.244 12.6229 14.244 11.156C14.244 9.68913 13.2926 8.5 12.119 8.5C10.9454 8.5 9.994 9.68913 9.994 11.156C9.994 12.6229 10.9454 13.812 12.119 13.812Z" fill="#65471B"/>
<path d="M23.375 14.874C24.5486 14.874 25.5 13.6849 25.5 12.218C25.5 10.7511 24.5486 9.562 23.375 9.562C22.2014 9.562 21.25 10.7511 21.25 12.218C21.25 13.6849 22.2014 14.874 23.375 14.874Z" fill="#65471B"/>
<path d="M16.276 35.131C16.276 35.131 17.541 34.72 17.705 33.779C17.878 32.807 17.081 32.612 17.081 32.612C17.081 32.612 18.122 32.404 18.253 31.236C18.376 30.135 17.392 29.873 17.392 29.873C17.392 29.873 18.362 29.473 18.408 28.334C18.446 27.375 17.413 26.906 17.413 26.906C17.413 26.906 22.451 25.685 22.969 25.565C23.485 25.445 24.289 24.95 24.038 23.871C23.789 22.791 22.834 22.753 22.341 22.868C21.847 22.983 15.597 24.434 13.441 24.936L12.002 25.27C11.462 25.397 11.217 25.16 11.598 24.758C12.106 24.222 12.431 23.629 12.544 22.645C12.663 21.61 12.312 20.332 12.111 19.836C11.737 18.915 11.106 18.187 10.377 17.937C9.24 17.547 8.432 18.258 8.835 19.498C9.439 21.352 9.043 22.873 8.002 23.791C5.553 25.948 4.414 27.486 5.172 30.764C6 34.339 9.549 36.64 13.124 35.812L16.276 35.131Z" fill="#F19020"/>
<path d="M8.296 6.333C8.132 6.245 7.993 6.109 7.905 5.934C7.689 5.506 7.865 5.007 8.298 4.822C12.564 2.991 15.997 4.779 16.141 4.856C16.574 5.087 16.749 5.603 16.532 6.01C16.316 6.415 15.792 6.556 15.359 6.328C15.236 6.265 12.527 4.896 9.081 6.375C8.824 6.484 8.534 6.46 8.296 6.333V6.333ZM20.431 10.083C20.275 9.985 20.145 9.84 20.069 9.659C19.882 9.217 20.092 8.732 20.537 8.575C24.918 7.039 28.222 9.055 28.36 9.142C28.775 9.402 28.915 9.929 28.672 10.32C28.43 10.71 27.896 10.815 27.481 10.558C27.361 10.486 24.754 8.937 21.214 10.179C20.948 10.27 20.661 10.225 20.431 10.083V10.083Z" fill="#65471B"/>
</svg>
